<svg width="137" height="41" viewBox="0 0 137 41" fill="none" xmlns="http://www.w3.org/2000/svg">
<rect width="137" height="41" fill="#3B55E6"/>
<path d="M52 10.0292H54.6875C55.875 10.0292 56.8125 10.2185 57.3125 10.5339C57.875 10.9123 58.125 11.4169 58.125 12.1739C58.125 12.6785 58 13.12 57.75 13.4354C57.5 13.7508 57.1875 14.0031 56.8125 14.0662V14.1292C57.375 14.2554 57.75 14.5077 58 14.8231C58.25 15.1385 58.375 15.58 58.375 16.1477C58.375 16.9677 58.0625 17.5354 57.5 17.9769C56.9375 18.4185 56.1875 18.6708 55.1875 18.6708H52V10.0292ZM53.8125 13.4354H54.875C55.375 13.4354 55.75 13.3723 55.9375 13.1831C56.125 12.9939 56.25 12.8046 56.25 12.4262C56.25 12.1108 56.125 11.8585 55.875 11.7323C55.625 11.6062 55.25 11.5431 54.75 11.5431H53.8125V13.4354ZM53.8125 14.8862V17.1569H55C55.5 17.1569 55.875 17.0308 56.125 16.8415C56.375 16.6523 56.5 16.3369 56.5 15.9585C56.5 15.2646 56 14.8862 55 14.8862H53.8125Z" fill="white"/>
<path d="M61.6875 18.6708H59.875V9.46155H61.6875V18.6708Z" fill="white"/>
<path d="M69.5 15.3277C69.5 16.4 69.1875 17.22 68.625 17.8508C68.0625 18.4815 67.25 18.7338 66.25 18.7338C65.625 18.7338 65.0625 18.6077 64.5625 18.2923C64.0625 18.04 63.6875 17.5985 63.4375 17.0938C63.1875 16.5892 63.0625 15.9585 63.0625 15.2646C63.0625 14.1923 63.3125 13.3723 63.875 12.7415C64.4375 12.1108 65.1875 11.8585 66.25 11.8585C66.875 11.8585 67.4375 11.9846 67.9375 12.3C68.4375 12.6154 68.8125 12.9938 69.0625 13.4985C69.3125 14.0031 69.5 14.6338 69.5 15.3277ZM65 15.3277C65 15.9585 65.125 16.4631 65.3125 16.8415C65.5 17.22 65.875 17.3462 66.375 17.3462C66.875 17.3462 67.1875 17.1569 67.375 16.8415C67.5625 16.5262 67.6875 16.0215 67.6875 15.3277C67.6875 14.6969 67.5625 14.1923 67.375 13.8769C67.125 13.5615 66.8125 13.3723 66.3125 13.3723C65.8125 13.3723 65.5 13.5615 65.3125 13.8769C65.0625 14.1923 65 14.6969 65 15.3277Z" fill="white"/>
<path d="M73.625 18.7969C71.5625 18.7969 70.5625 17.6615 70.5625 15.3908C70.5625 14.2554 70.8125 13.4354 71.375 12.8046C71.9375 12.2369 72.75 11.9215 73.75 11.9215C74.5 11.9215 75.1875 12.0477 75.8125 12.3631L75.3125 13.7508C75.0625 13.6246 74.75 13.5615 74.5 13.4985C74.25 13.4354 74.0625 13.3723 73.8125 13.3723C72.875 13.3723 72.4375 14.0662 72.4375 15.3908C72.4375 16.7154 72.875 17.3462 73.8125 17.3462C74.125 17.3462 74.5 17.2831 74.75 17.22C75 17.1569 75.3125 16.9677 75.625 16.7785V18.2923C75.3125 18.4815 75.0625 18.6077 74.75 18.6708C74.4375 18.7338 74.125 18.7969 73.625 18.7969Z" fill="white"/>
<path d="M78.875 15.0754L79.625 14.0662L81.4375 12.0477H83.4375L80.8125 14.8862L83.5625 18.6077H81.5L79.625 15.9585L78.875 16.5892V18.6708H77.0625V9.46155H78.875V13.5615V15.0754Z" fill="white"/>
<path d="M87.25 18.7969C85.1875 18.7969 84.1875 17.6615 84.1875 15.3908C84.1875 14.2554 84.4375 13.4354 85 12.8046C85.5625 12.2369 86.375 11.9215 87.375 11.9215C88.125 11.9215 88.8125 12.0477 89.4375 12.3631L88.9375 13.7508C88.6875 13.6246 88.375 13.5615 88.125 13.4985C87.875 13.4354 87.6875 13.3723 87.4375 13.3723C86.5 13.3723 86.0625 14.0662 86.0625 15.3908C86.0625 16.7154 86.5 17.3462 87.4375 17.3462C87.75 17.3462 88.125 17.2831 88.375 17.22C88.625 17.1569 88.9375 16.9677 89.25 16.7785V18.2923C88.9375 18.4815 88.6875 18.6077 88.375 18.6708C88.0625 18.7338 87.6875 18.7969 87.25 18.7969Z" fill="white"/>
<path d="M96.8125 18.6708H95V14.8231C95 13.8769 94.625 13.3723 93.9375 13.3723C93.4375 13.3723 93.0625 13.5615 92.875 13.8769C92.6875 14.1923 92.5625 14.76 92.5625 15.5169V18.6077H90.75V9.46155H92.5625V11.3539C92.5625 11.48 92.5625 11.8585 92.5 12.3631L92.4375 12.8677H92.5C92.875 12.2369 93.5 11.9215 94.375 11.9215C95.125 11.9215 95.75 12.1108 96.125 12.5523C96.5 12.9939 96.75 13.5615 96.75 14.3815V18.6708H96.8125Z" fill="white"/>
<path d="M102.812 18.6708L102.438 17.7877C102.125 18.1662 101.812 18.4185 101.5 18.6077C101.188 18.7338 100.75 18.86 100.25 18.86C99.625 18.86 99.125 18.6708 98.75 18.2923C98.375 17.9138 98.1875 17.4092 98.1875 16.7154C98.1875 16.0215 98.4375 15.5169 98.9375 15.1385C99.4375 14.8231 100.188 14.6338 101.125 14.5708L102.25 14.5077V14.1923C102.25 13.4985 101.937 13.1831 101.25 13.1831C100.75 13.1831 100.125 13.3723 99.375 13.6877L98.8125 12.4892C99.5625 12.1108 100.375 11.9215 101.312 11.9215C102.187 11.9215 102.875 12.1108 103.313 12.4892C103.813 12.8677 104 13.4354 104 14.2554V18.6708H102.812ZM102.313 15.58H101.625C101.125 15.58 100.688 15.7062 100.438 15.8323C100.188 16.0215 100.062 16.2738 100.062 16.6523C100.062 17.1569 100.375 17.4092 100.937 17.4092C101.375 17.4092 101.687 17.2831 101.937 17.0308C102.187 16.7785 102.313 16.4631 102.313 16.0846V15.58Z" fill="white"/>
<path d="M105.813 10.3446C105.813 9.77693 106.125 9.46155 106.812 9.46155C107.438 9.46155 107.812 9.77693 107.812 10.3446C107.812 10.5969 107.75 10.8492 107.562 10.9754C107.375 11.1015 107.188 11.2277 106.812 11.2277C106.125 11.2277 105.813 10.9123 105.813 10.3446ZM107.688 18.6708H105.875V12.0477H107.688V18.6708Z" fill="white"/>
<path d="M115.625 18.6708H113.812V14.8231C113.812 14.3185 113.75 14.0031 113.563 13.7508C113.375 13.4985 113.125 13.3723 112.75 13.3723C112.25 13.3723 111.875 13.5615 111.688 13.8769C111.438 14.1923 111.375 14.76 111.375 15.58V18.6708H109.563V12.0477H110.937L111.188 12.8677H111.312C111.5 12.5523 111.812 12.3 112.125 12.1738C112.5 11.9846 112.875 11.9215 113.312 11.9215C114.062 11.9215 114.625 12.1108 115.062 12.5523C115.5 12.9938 115.625 13.5615 115.625 14.3815V18.6708Z" fill="white"/>
<path d="M71.625 28.7631H72.625L72.6875 29.9615C72.8125 30.0877 73 30.1508 73.1875 30.2138C73.375 30.2769 73.625 30.34 73.875 30.34C74.125 30.34 74.375 30.34 74.5625 30.2769C74.75 30.2138 74.9375 30.1508 75.0625 30.0246C75.1875 29.8985 75.3125 29.7723 75.4375 29.5831C75.5 29.3938 75.5625 29.2046 75.5625 29.0154C75.5625 28.8262 75.5625 28.6369 75.5 28.4477C75.4375 28.2585 75.3125 28.1323 75.1875 27.9431C75.0625 27.8169 74.875 27.6277 74.6875 27.5015C74.5 27.3754 74.3125 27.1862 74.0625 27.06C73.8125 26.8708 73.5625 26.7446 73.3125 26.5554C73.0625 26.3662 72.875 26.1769 72.6875 25.9246C72.5 25.6723 72.375 25.4831 72.25 25.2308C72.125 24.9785 72.0625 24.6631 72.0625 24.3477C72.0625 23.9692 72.125 23.5908 72.3125 23.2754C72.5 22.96 72.6875 22.7077 73 22.4554C73.25 22.2662 73.625 22.0769 74 21.9508C74.375 21.8246 74.8125 21.7615 75.25 21.7615C75.5625 21.7615 75.8125 21.7615 76.0625 21.8246C76.3125 21.8246 76.5 21.8877 76.6875 21.9508C76.875 22.0138 77 22.0138 77.1875 22.0769C77.3125 22.14 77.4375 22.2031 77.5 22.2662L77.1875 23.9692H76.3125L76.125 22.8338C76 22.7708 75.875 22.6446 75.6875 22.5815C75.5 22.5185 75.3125 22.5185 75.125 22.5185C74.9375 22.5185 74.75 22.5185 74.5625 22.5815C74.375 22.6446 74.25 22.7077 74.125 22.8338C74 22.96 73.875 23.0231 73.8125 23.2123C73.75 23.3385 73.6875 23.5277 73.6875 23.7169C73.6875 23.9692 73.75 24.1585 73.8125 24.3477C73.875 24.5369 74 24.7262 74.125 24.8523C74.25 24.9785 74.4375 25.1677 74.625 25.2938C74.8125 25.42 75.0625 25.6092 75.3125 25.7354C75.5625 25.8615 75.8125 26.0508 76 26.24C76.25 26.4292 76.4375 26.6185 76.625 26.8077C76.8125 26.9969 76.9375 27.2492 77.0625 27.5015C77.1875 27.7538 77.25 28.0062 77.25 28.3215C77.25 28.7 77.1875 29.0785 77.0625 29.3938C76.9375 29.7092 76.6875 30.0246 76.4375 30.2769C76.1875 30.5292 75.8125 30.7185 75.4375 30.8446C75 30.9708 74.5625 31.0338 74.0625 31.0338C73.75 31.0338 73.4375 31.0338 73.1875 30.9708C72.875 30.9077 72.625 30.9077 72.4375 30.8446C72.1875 30.7815 72 30.7185 71.8125 30.6554C71.625 30.5923 71.5 30.5292 71.4375 30.4661L71.625 28.7631Z" fill="white"/>
<path d="M77.6875 32.8C77.75 32.8631 77.8125 32.8631 77.9375 32.9262C78 32.9262 78.125 32.9892 78.25 32.9892C78.375 32.9892 78.5 32.9892 78.5625 32.9892C78.75 32.9892 78.875 32.9892 79.0625 32.9262C79.25 32.8631 79.375 32.8 79.5625 32.6739C79.75 32.5477 79.875 32.3585 80.0625 32.1692C80.25 31.98 80.375 31.7277 80.5625 31.4123H79.6875L78.5625 25.3569C78.5625 25.2308 78.5 25.1677 78.4375 25.1046C78.375 25.0415 78.375 25.0415 78.3125 25.0415C78.25 25.0415 78.1875 25.0415 78.1875 25.0415C78.125 25.0415 78.0625 25.1046 77.9375 25.1677L77.75 24.7262C77.75 24.6631 77.8125 24.6 77.9375 24.5369C78 24.4739 78.125 24.4108 78.25 24.2846C78.375 24.2215 78.5 24.1585 78.6875 24.0954C78.875 24.0323 79 24.0323 79.1875 24.0323C79.375 24.0323 79.5 24.0323 79.625 24.0954C79.75 24.1585 79.8125 24.1585 79.9375 24.2846C80 24.3477 80.0625 24.4108 80.125 24.5369C80.1875 24.6631 80.1875 24.7262 80.1875 24.8523C80.1875 24.9785 80.25 25.1677 80.25 25.42C80.3125 25.6723 80.3125 25.9246 80.375 26.1769C80.4375 26.4923 80.4375 26.7446 80.5 27.06C80.5625 27.3754 80.5625 27.6908 80.625 27.9431C80.6875 28.1954 80.6875 28.5108 80.75 28.7C80.8125 28.9523 80.8125 29.1415 80.8125 29.2677L80.9375 30.6554L81.5625 29.3939C81.6875 29.0785 81.8125 28.8262 81.9375 28.5108C82.0625 28.1954 82.1875 27.9431 82.25 27.6908C82.375 27.4385 82.4375 27.1231 82.5 26.8708C82.5625 26.6185 82.5625 26.3031 82.5625 25.9877C82.5625 25.8615 82.5625 25.7354 82.5 25.6092C82.5 25.4831 82.4375 25.42 82.4375 25.3569C82.4375 25.2939 82.375 25.1677 82.375 25.1046C82.375 24.9785 82.3125 24.9154 82.3125 24.7892C82.3125 24.5369 82.375 24.4108 82.5 24.2846C82.625 24.1585 82.8125 24.0954 83.0625 24.0954C83.25 24.0954 83.375 24.1585 83.5 24.1585C83.625 24.2215 83.6875 24.2846 83.8125 24.4108C83.875 24.5369 83.9375 24.6631 84 24.7892C84.0625 24.9154 84.0625 25.1046 84.0625 25.2308C84.0625 25.5462 84 25.8615 83.9375 26.1769C83.875 26.4923 83.8125 26.7446 83.6875 27.06C83.5625 27.3754 83.4375 27.6277 83.3125 27.9431C83.1875 28.2585 83.0625 28.5108 82.875 28.7631C82.6875 29.1416 82.5 29.52 82.3125 29.8985C82.125 30.2769 81.9375 30.6554 81.6875 30.9708C81.5 31.2862 81.3125 31.6015 81.125 31.8539C80.9375 32.1062 80.8125 32.3585 80.6875 32.5477C80.375 33.0523 80.0625 33.3677 79.625 33.62C79.1875 33.8723 78.8125 33.9354 78.3125 33.9354C78.25 33.9354 78.125 33.9354 78 33.9354C77.875 33.9354 77.75 33.9354 77.6875 33.8723C77.625 33.8092 77.5 33.8092 77.375 33.8092C77.3125 33.8092 77.25 33.7462 77.1875 33.7462L77.5625 32.6739C77.5625 32.7369 77.625 32.7369 77.6875 32.8Z" fill="white"/>
<path d="M84.4375 29.6462C84.5 29.7092 84.5625 29.7723 84.6875 29.8354C84.8125 29.8985 84.9375 29.9616 85.0625 30.0246C85.1875 30.0877 85.375 30.1508 85.5 30.1508C85.6875 30.2139 85.8125 30.2139 86 30.2139C86.125 30.2139 86.25 30.2139 86.375 30.1508C86.5 30.1508 86.625 30.0877 86.6875 30.0246C86.8125 29.9616 86.875 29.8985 86.9375 29.7723C87 29.6462 87.0625 29.52 87.0625 29.3939C87.0625 29.2677 87.0625 29.1416 87 29.0154C86.9375 28.8892 86.875 28.7631 86.75 28.7C86.625 28.6369 86.5625 28.5108 86.4375 28.3846C86.3125 28.2585 86.1875 28.1954 86 28.0692C85.875 28.0062 85.75 27.88 85.625 27.7539C85.5 27.6277 85.375 27.5016 85.25 27.3123C85.125 27.1231 85.0625 26.9339 84.9375 26.7446C84.875 26.5554 84.8125 26.3031 84.8125 26.0508C84.8125 25.7354 84.875 25.4831 85 25.2308C85.125 24.9785 85.3125 24.7892 85.5 24.6C85.75 24.4108 86 24.2846 86.3125 24.2216C86.625 24.1585 86.9375 24.0954 87.3125 24.0954C87.5 24.0954 87.625 24.0954 87.8125 24.0954C88 24.0954 88.125 24.1585 88.25 24.1585C88.375 24.1585 88.5 24.2216 88.625 24.2216C88.75 24.2216 88.8125 24.2846 88.875 24.2846L88.625 25.42C88.625 25.3569 88.5625 25.3569 88.5 25.2939C88.4375 25.2308 88.3125 25.1677 88.25 25.1046C88.125 25.0416 88 24.9785 87.875 24.9785C87.75 24.9154 87.5625 24.9154 87.4375 24.9154C87.3125 24.9154 87.1875 24.9154 87.0625 24.9785C86.9375 24.9785 86.8125 25.0416 86.75 25.1046C86.6875 25.1677 86.5625 25.2308 86.5 25.3569C86.4375 25.4831 86.4375 25.5462 86.375 25.6723C86.375 25.7985 86.375 25.9246 86.4375 26.0508C86.5 26.1769 86.5625 26.3031 86.625 26.3662C86.6875 26.4923 86.8125 26.5554 86.9375 26.6816C87.0625 26.8077 87.1875 26.9339 87.375 26.9969C87.5625 27.1231 87.6875 27.2492 87.8125 27.3754C87.9375 27.5016 88.0625 27.6277 88.1875 27.8169C88.3125 28.0062 88.375 28.1323 88.4375 28.3216C88.5 28.5108 88.5625 28.7631 88.5625 29.0154C88.5625 29.3308 88.5 29.6462 88.375 29.8985C88.25 30.1508 88.0625 30.34 87.8125 30.5292C87.5625 30.7185 87.3125 30.8446 87 30.9077C86.6875 30.9708 86.375 31.0339 86 31.0339C85.8125 31.0339 85.625 31.0339 85.4375 30.9708C85.25 30.9077 85.0625 30.9077 84.875 30.9077C84.6875 30.8446 84.5625 30.8446 84.4375 30.7816C84.3125 30.7185 84.25 30.7185 84.1875 30.6554L84.4375 29.6462Z" fill="white"/>
<path d="M89.9375 30.0246V29.9615C89.9375 29.8985 89.9375 29.8985 89.9375 29.7723C89.9375 29.7092 89.9375 29.5831 90 29.4569C90 29.3308 90.0625 29.1415 90.0625 28.8892L90.5625 25.0415H89.875L90 24.4739L90.6875 24.2215C90.75 24.1585 90.8125 24.0323 90.9375 23.9062C91 23.78 91.0625 23.6539 91.1875 23.5277C91.25 23.4015 91.3125 23.2123 91.375 23.0862C91.4375 22.96 91.5 22.7708 91.5625 22.6446H92.4375L92.25 24.0954H93.625L93.5 24.9785H92.1875L91.6875 28.6369C91.6875 28.8262 91.625 29.0154 91.625 29.2046C91.625 29.3308 91.625 29.4569 91.625 29.5831C91.625 29.7723 91.6875 29.8985 91.75 29.9615C91.8125 30.0246 91.9375 30.0877 92.125 30.0877C92.1875 30.0877 92.3125 30.0877 92.375 30.0246C92.4375 30.0246 92.5625 29.9615 92.625 29.9615C92.75 29.8985 92.8125 29.8985 92.875 29.8354C92.9375 29.7723 93.0625 29.7092 93.125 29.7092L93.25 30.1508C93.1875 30.2139 93.0625 30.34 92.9375 30.4662C92.8125 30.5923 92.625 30.6554 92.4375 30.7815C92.25 30.8446 92.0625 30.9708 91.8125 31.0339C91.5 31.0339 91.25 31.0339 91 31.0339C90.875 31.0339 90.6875 31.0339 90.5625 30.9708C90.4375 30.9077 90.3125 30.9077 90.1875 30.7815C90.0625 30.7185 90 30.5923 89.9375 30.4662C89.9375 30.4031 89.9375 30.2139 89.9375 30.0246Z" fill="white"/>
<path d="M93.875 28.3846C93.875 27.7539 94 27.2492 94.1875 26.6815C94.375 26.1769 94.625 25.6723 94.9375 25.2939C95.25 24.9154 95.625 24.6 96.0625 24.3477C96.5 24.0954 97 24.0323 97.5 24.0323C97.8125 24.0323 98.0625 24.0954 98.3125 24.1585C98.5625 24.2215 98.75 24.3477 98.875 24.4739C99 24.6 99.125 24.7892 99.1875 24.9154C99.25 25.0415 99.3125 25.2939 99.3125 25.4831C99.3125 25.7985 99.25 26.1139 99.125 26.3662C99 26.6185 98.8125 26.8708 98.625 27.06C98.4375 27.2492 98.1875 27.4385 97.9375 27.5646C97.6875 27.6908 97.375 27.8169 97.125 27.9431C96.875 28.0692 96.5625 28.1323 96.3125 28.1323C96.0625 28.1954 95.8125 28.1954 95.5625 28.1954C95.5625 28.4477 95.5625 28.7 95.625 28.9523C95.6875 29.2046 95.75 29.3939 95.8125 29.5831C95.875 29.7723 96 29.8985 96.1875 30.0246C96.3125 30.1508 96.5 30.1508 96.75 30.1508C96.9375 30.1508 97.125 30.1508 97.3125 30.0877C97.5 30.0246 97.625 29.9615 97.8125 29.8985C97.9375 29.8354 98.125 29.7092 98.25 29.5831C98.375 29.4569 98.5 29.3308 98.625 29.2046L98.9375 29.7723C98.875 29.8985 98.75 30.0246 98.5625 30.2139C98.4375 30.34 98.25 30.5292 98 30.6554C97.75 30.7815 97.5 30.9077 97.25 30.9708C96.9375 31.0339 96.6875 31.0969 96.3125 31.0969C95.875 31.0969 95.5 31.0339 95.1875 30.8446C94.875 30.7185 94.625 30.4662 94.4375 30.2139C94.25 29.9615 94.125 29.6462 94 29.3308C93.9375 29.0785 93.875 28.7631 93.875 28.3846ZM95.625 27.5646C95.75 27.5646 95.875 27.5015 96.0625 27.5015C96.25 27.4385 96.375 27.3754 96.5625 27.3123C96.75 27.2492 96.875 27.1231 97 27.06C97.125 26.9969 97.3125 26.8077 97.375 26.6815C97.4375 26.5554 97.5625 26.3662 97.625 26.24C97.6875 26.1139 97.75 25.9246 97.75 25.6723C97.75 25.3569 97.6875 25.1677 97.5625 25.0415C97.4375 24.9154 97.3125 24.8523 97.125 24.8523C96.9375 24.8523 96.8125 24.9154 96.625 24.9785C96.5 25.0415 96.375 25.1677 96.25 25.2939C96.125 25.42 96.0625 25.6092 95.9375 25.7985C95.875 25.9877 95.8125 26.1769 95.75 26.3662C95.6875 26.5554 95.625 26.7446 95.625 26.9969C95.625 27.2492 95.625 27.3754 95.625 27.5646Z" fill="white"/>
<path d="M101.125 25.2308L100.5 24.8523L100.625 24.3477L102.5 24.0323L102.812 24.1585L102.688 25.42C102.813 25.2308 103 25.0415 103.125 24.8523C103.312 24.6631 103.5 24.5369 103.688 24.4108C103.875 24.2846 104.063 24.1585 104.312 24.0954C104.5 24.0323 104.75 23.9692 104.938 23.9692C105.125 23.9692 105.313 23.9692 105.5 24.0323C105.688 24.0954 105.812 24.1585 105.937 24.2846C106.062 24.4108 106.187 24.5369 106.25 24.7262C106.312 24.9154 106.375 25.1046 106.438 25.42C106.563 25.2308 106.75 25.0415 106.875 24.8523C107.062 24.6631 107.25 24.5369 107.438 24.4108C107.625 24.2846 107.813 24.1585 108.063 24.0954C108.312 24.0323 108.5 23.9692 108.75 23.9692C108.937 23.9692 109.125 24.0323 109.312 24.0954C109.5 24.1585 109.625 24.2846 109.75 24.4108C109.875 24.5369 110 24.7262 110.062 24.9785C110.125 25.2308 110.188 25.4831 110.188 25.7985C110.188 25.9246 110.188 26.0508 110.188 26.24C110.188 26.4292 110.125 26.6185 110.125 26.8077C110.125 26.9969 110.062 27.1862 110.062 27.3754C110 27.5646 110 27.7539 110 27.9431C110 28.0692 109.938 28.2585 109.938 28.3846C109.938 28.5739 109.875 28.7 109.875 28.8892C109.875 29.0785 109.813 29.2046 109.813 29.3308C109.813 29.4569 109.812 29.6462 109.75 29.7723C109.75 29.8985 109.75 30.0246 109.813 30.0877C109.875 30.1508 109.875 30.1508 109.938 30.1508C110 30.1508 110.063 30.1508 110.188 30.0877C110.25 30.0246 110.375 29.9615 110.562 29.8354L110.75 30.2139C110.688 30.2769 110.688 30.34 110.562 30.4031C110.5 30.4662 110.375 30.5923 110.25 30.7185C110.125 30.8446 109.937 30.9077 109.75 30.9708C109.562 31.0339 109.375 31.0969 109.125 31.0969C108.937 31.0969 108.75 31.0969 108.625 31.0339C108.5 30.9708 108.375 30.9077 108.313 30.8446C108.25 30.7815 108.187 30.6554 108.187 30.5292C108.187 30.4031 108.125 30.2769 108.125 30.1508C108.125 30.0246 108.125 29.8985 108.125 29.7723C108.125 29.6462 108.187 29.4569 108.187 29.3308C108.187 29.1415 108.25 29.0154 108.25 28.8262C108.25 28.6369 108.313 28.5108 108.313 28.3215C108.313 28.1323 108.375 28.0062 108.375 27.8169C108.438 27.6277 108.437 27.4385 108.437 27.2492C108.437 27.06 108.5 26.8708 108.5 26.6185C108.5 26.4292 108.5 26.24 108.5 26.0508C108.5 25.8615 108.5 25.7354 108.437 25.6092C108.437 25.4831 108.375 25.42 108.313 25.3569C108.25 25.2939 108.187 25.2308 108.125 25.2308C108.062 25.2308 108 25.2308 107.938 25.2308C107.813 25.2308 107.687 25.2308 107.562 25.2939C107.437 25.3569 107.25 25.42 107.125 25.5462C107 25.6723 106.875 25.7985 106.688 25.9246C106.563 26.0508 106.437 26.24 106.312 26.4292C106.312 26.6815 106.25 26.9339 106.25 27.1862C106.25 27.4385 106.188 27.6908 106.188 27.9431L105.813 30.9077H104.188L104.5 28.2585C104.5 28.0692 104.563 27.9431 104.563 27.6908C104.563 27.5015 104.625 27.3123 104.625 27.1231C104.625 26.9339 104.687 26.7446 104.687 26.4923C104.687 26.3031 104.687 26.1139 104.687 25.9246C104.687 25.7354 104.688 25.5462 104.625 25.42C104.625 25.2939 104.563 25.2308 104.5 25.1677C104.438 25.1046 104.375 25.0415 104.312 25.0415C104.25 25.0415 104.125 25.0415 104.062 25.0415C103.937 25.0415 103.813 25.1046 103.688 25.1677C103.563 25.2308 103.375 25.3569 103.25 25.4831C103.125 25.6092 102.937 25.7354 102.812 25.9246C102.687 26.1139 102.562 26.24 102.438 26.4292L101.813 30.9077H100.25L101.125 25.2308Z" fill="white"/>
<path d="M111.375 29.6462C111.438 29.7092 111.5 29.7723 111.625 29.8354C111.75 29.8985 111.875 29.9616 112 30.0246C112.125 30.0877 112.312 30.1508 112.438 30.1508C112.625 30.2139 112.75 30.2139 112.938 30.2139C113.063 30.2139 113.187 30.2139 113.312 30.1508C113.437 30.1508 113.562 30.0877 113.625 30.0246C113.75 29.9616 113.813 29.8985 113.875 29.7723C113.938 29.6462 114 29.52 114 29.3939C114 29.2677 114 29.1416 113.937 29.0154C113.875 28.8892 113.812 28.7631 113.688 28.7C113.562 28.6369 113.5 28.5108 113.375 28.3846C113.25 28.2585 113.125 28.1954 112.938 28.0692C112.813 28.0062 112.687 27.88 112.562 27.7539C112.437 27.6277 112.312 27.5016 112.187 27.3123C112.062 27.1231 112 26.9339 111.875 26.7446C111.812 26.5554 111.75 26.3031 111.75 26.0508C111.75 25.7354 111.812 25.4831 111.937 25.2308C112.062 24.9785 112.25 24.7892 112.438 24.6C112.688 24.4108 112.938 24.2846 113.25 24.2216C113.563 24.1585 113.875 24.0954 114.25 24.0954C114.437 24.0954 114.562 24.0954 114.75 24.0954C114.937 24.0954 115.062 24.1585 115.187 24.1585C115.312 24.1585 115.438 24.2216 115.562 24.2216C115.688 24.2216 115.75 24.2846 115.812 24.2846L115.562 25.42C115.562 25.3569 115.5 25.3569 115.438 25.2939C115.375 25.2308 115.25 25.1677 115.187 25.1046C115.062 25.0416 114.938 24.9785 114.813 24.9785C114.688 24.9154 114.5 24.9154 114.375 24.9154C114.25 24.9154 114.125 24.9154 114 24.9785C113.875 24.9785 113.75 25.0416 113.688 25.1046C113.625 25.1677 113.5 25.2308 113.438 25.3569C113.375 25.4831 113.375 25.5462 113.312 25.6723C113.312 25.7985 113.312 25.9246 113.375 26.0508C113.438 26.1769 113.5 26.3031 113.563 26.3662C113.625 26.4923 113.75 26.5554 113.875 26.6816C114 26.8077 114.125 26.9339 114.312 26.9969C114.5 27.1231 114.625 27.2492 114.75 27.3754C114.875 27.5016 115 27.6277 115.125 27.8169C115.25 28.0062 115.312 28.1323 115.375 28.3216C115.437 28.5108 115.5 28.7631 115.5 29.0154C115.5 29.3308 115.438 29.6462 115.313 29.8985C115.188 30.1508 115 30.34 114.75 30.5292C114.5 30.7185 114.25 30.8446 113.937 30.9077C113.625 30.9708 113.313 31.0339 112.938 31.0339C112.75 31.0339 112.563 31.0339 112.375 30.9708C112.188 30.9077 112 30.9077 111.812 30.9077C111.625 30.8446 111.5 30.8446 111.375 30.7816C111.25 30.7185 111.188 30.7185 111.125 30.6554L111.375 29.6462Z" fill="white"/>
</svg>
